<?xml version="1.0"?>
<svg xmlns="http://www.w3.org/2000/svg" xmlns:xlink="http://www.w3.org/1999/xlink" xmlns:svgjs="http://svgjs.com/svgjs" version="1.1" width="512" height="512" x="0" y="0" viewBox="0 0 512 512" style="enable-background:new 0 0 512 512" xml:space="preserve"><rect width="512" height="512" fill=" #3DCFD3" shape="square"/><g transform="matrix(0.6,0,0,0.6,102.40002832412719,102.4000658273697)"><g xmlns="http://www.w3.org/2000/svg"><path d="m65.629 94.033c-4.292.264-8.262 2.373-10.898 5.771-28.067 36.094-48.977 79.087-54.617 124.336-.527 4.277.791 8.569 3.633 11.792 2.856 3.223 6.943 5.068 11.25 5.068h63.713c7.324 0 13.579-5.288 14.795-12.51 4.16-24.697 13.638-47.549 28.154-67.925 4.248-5.962 3.574-14.136-1.611-19.307l-42.876-42.86c-3.032-3.032-6.958-4.512-11.543-4.365z" fill="#000000" data-original="#000000" style=""/><path d="m54.731 412.197c2.637 3.398 6.606 5.508 10.898 5.771 4.671.212 8.635-1.458 11.543-4.365l42.876-42.861c5.186-5.171 5.859-13.345 1.611-19.307-14.517-20.376-23.994-43.228-28.154-67.925-1.216-7.222-7.471-12.51-14.795-12.51h-63.713c-4.307 0-8.394 1.846-11.25 5.068-2.842 3.223-4.16 7.515-3.633 11.792 5.64 45.25 26.55 88.243 54.617 124.337z" fill="#000000" data-original="#000000" style=""/><path d="m151.865 124.443c3.032 0 6.079-.923 8.701-2.783 20.376-14.517 43.228-23.994 67.925-28.154 7.221-1.216 12.509-7.471 12.509-14.795v-63.723c0-4.307-1.846-8.394-5.068-11.25-3.223-2.842-7.456-4.131-11.792-3.633-45.249 5.64-88.242 26.56-124.336 54.626-3.398 2.637-5.508 6.606-5.771 10.898s1.318 8.496 4.365 11.543l42.861 42.876c2.901 2.901 6.738 4.395 10.606 4.395z" fill="#000000" data-original="#000000" style=""/><path d="m228.491 418.496c-24.697-4.16-47.549-13.638-67.925-28.154-5.962-4.248-14.15-3.574-19.307 1.611l-42.861 42.876c-3.047 3.047-4.629 7.251-4.365 11.543s2.373 8.262 5.771 10.898c36.094 28.066 79.087 48.979 124.336 54.619 4.536.527 8.707-.908 11.792-3.633 3.223-2.856 5.068-6.943 5.068-11.25v-63.715c0-7.325-5.288-13.579-12.509-14.795z" fill="#000000" data-original="#000000" style=""/><path d="m287.861.105c-4.263-.498-8.569.791-11.792 3.633-3.223 2.856-5.069 6.943-5.069 11.25v63.723c0 7.324 5.288 13.564 12.495 14.795 79.673 13.447 137.505 81.796 137.505 162.495s-57.832 149.048-137.505 162.495c-7.207 1.23-12.495 7.471-12.495 14.795v63.715c0 4.307 1.846 8.394 5.068 11.25 3.069 2.71 7.266 4.173 11.792 3.633 127.208-15.879 224.14-127.656 224.14-255.888s-96.932-240.017-224.139-255.896z" fill="#000000" data-original="#000000" style=""/><path d="m361 256.001c0-5.273-2.769-10.151-7.28-12.861l-150-90c-4.644-2.769-10.4-2.856-15.117-.19-4.702 2.666-7.603 7.646-7.603 13.052v180c0 5.405 2.9 10.386 7.603 13.052 4.698 2.662 10.472 2.591 15.117-.19l150-90c4.512-2.712 7.28-7.59 7.28-12.863z" fill="#000000" data-original="#000000" style=""/></g></g></svg>
