<?xml version="1.0"?>
<svg xmlns="http://www.w3.org/2000/svg" xmlns:xlink="http://www.w3.org/1999/xlink" xmlns:svgjs="http://svgjs.com/svgjs" version="1.1" width="512" height="512" x="0" y="0" viewBox="0 0 512 512" style="enable-background:new 0 0 512 512" xml:space="preserve"><rect width="512" height="512" fill=" #3DCFD3" shape="square"/><g transform="matrix(0.6,0,0,0.6,102.4,102.4)"><g xmlns="http://www.w3.org/2000/svg"><path d="m360 8h-208a32.042 32.042 0 0 0 -32 32v432a32.042 32.042 0 0 0 32 32h208a32.042 32.042 0 0 0 32-32v-432a32.042 32.042 0 0 0 -32-32zm-66.56 16-4.5 16h-66.69l-4-16zm82.56 448a16.021 16.021 0 0 1 -16 16h-208a16.021 16.021 0 0 1 -16-16v-432a16.021 16.021 0 0 1 16-16h49.75l6.49 25.94a8 8 0 0 0 7.76 6.06h79a8 8 0 0 0 7.7-5.83l7.36-26.17h49.94a16.021 16.021 0 0 1 16 16z" fill="#000000" data-original="#000000" style=""/><path d="m216 456h-56a8 8 0 0 0 0 16h56a8 8 0 0 0 0-16z" fill="#000000" data-original="#000000" style=""/><path d="m248 456h-8a8 8 0 0 0 0 16h8a8 8 0 0 0 0-16z" fill="#000000" data-original="#000000" style=""/><path d="m284.116 209.14a8 8 0 0 0 -10.976 2.744l-48 80a8 8 0 1 0 13.72 8.232l48-80a8 8 0 0 0 -2.744-10.976z" fill="#000000" data-original="#000000" style=""/><path d="m310.247 211a8 8 0 0 0 -12.494 10l28 35-28 35a8 8 0 0 0 12.494 10l32-40a8 8 0 0 0 0-10z" fill="#000000" data-original="#000000" style=""/><path d="m201.753 301a8 8 0 1 0 12.494-10l-28-35 28-35a8 8 0 1 0 -12.494-10l-32 40a8 8 0 0 0 0 10z" fill="#000000" data-original="#000000" style=""/></g></g></svg>
